<?xml version="1.0" standalone="no"?>
<!DOCTYPE svg PUBLIC "-//W3C//DTD SVG 20010904//EN"
 "http://www.w3.org/TR/2001/REC-SVG-20010904/DTD/svg10.dtd">
<svg version="1.0" xmlns="http://www.w3.org/2000/svg"
 width="700.000000pt" height="700.000000pt" viewBox="0 0 700.000000 700.000000"
 preserveAspectRatio="xMidYMid meet">
<metadata>
Created by potrace 1.11, written by Peter Selinger 2001-2013
</metadata>
<g transform="translate(0.000000,700.000000) scale(0.100000,-0.100000)"
fill="#000000" stroke="none">
<path d="M476 5810 c-63 -25 -128 -88 -158 -154 l-23 -51 0 -2100 c0 -2046 0
-2101 19 -2150 27 -70 96 -140 162 -165 55 -20 64 -20 3024 -20 2940 0 2970 0
3022 20 53 19 116 74 150 131 39 62 39 85 36 2214 l-3 2070 -23 50 c-32 70
-95 131 -160 155 -52 20 -81 20 -3025 20 -2910 -1 -2973 -1 -3021 -20z m3274
-615 c346 -57 641 -195 891 -418 522 -466 707 -1206 467 -1867 -297 -821
-1177 -1283 -2033 -1069 -322 81 -627 266 -852 518 -379 424 -521 1008 -382
1566 148 593 629 1078 1219 1231 209 54 496 70 690 39z"/>
<path d="M3280 4707 l0 -164 -62 -17 c-162 -44 -329 -164 -403 -290 -46 -79
-69 -186 -62 -286 15 -191 127 -345 327 -449 101 -53 188 -85 360 -132 229
-63 311 -98 389 -165 120 -104 124 -295 8 -387 -82 -65 -171 -89 -332 -88
-255 1 -397 92 -439 284 l-6 27 -170 0 -169 0 5 -32 c23 -141 59 -225 129
-307 89 -104 205 -177 351 -222 l74 -23 0 -163 0 -163 230 0 230 0 2 161 3
161 84 25 c304 87 469 297 446 566 -13 161 -65 267 -180 375 -119 111 -241
166 -599 272 -177 52 -272 98 -329 159 -121 129 -57 321 129 391 120 44 320
44 426 -2 26 -11 65 -39 86 -62 42 -45 82 -137 82 -186 l0 -30 170 0 170 0 0
32 c0 17 -7 61 -16 97 -50 202 -210 367 -421 436 l-53 17 0 164 0 164 -230 0
-230 0 0 -163z"/>
</g>
</svg>
