<svg version="1.1" xmlns="http://www.w3.org/2000/svg" xmlns:xlink="http://www.w3.org/1999/xlink" width="48" height="48"><defs><linearGradient x1="12.23187" y1="12.23187" x2="61.31951" y2="61.31951" gradientUnits="userSpaceOnUse" id="color-1"><stop offset="0" stop-color="#000000" stop-opacity="0.3"></stop><stop offset="1" stop-color="#000000" stop-opacity="0"></stop></linearGradient><filter id="dropshadow-base"><feColorMatrix type="matrix" values="0 0 0 0 0  0 0 0 0 0  0 0 0 0 0  0 0 0 .8 0"></feColorMatrix> <feOffset dx="0" dy="1"></feOffset> <feGaussianBlur stdDeviation="1"></feGaussianBlur> <feComposite in="SourceGraphic"></feComposite></filter><filter id="dropshadow-banner" x="-10%" y="-10%" width="120%" height="130%"><feColorMatrix type="matrix" values="0 0 0 0 0  0 0 0 0 0  0 0 0 0 0  0 0 0 .4 0"></feColorMatrix> <feOffset dx="0" dy="1"></feOffset> <feGaussianBlur stdDeviation="0.5"></feGaussianBlur> <feComposite in="SourceGraphic"></feComposite></filter></defs><g fill="none" fill-rule="nonzero" stroke="none" stroke-width="none" stroke-linecap="butt" stroke-linejoin="miter" stroke-miterlimit="10" stroke-dasharray="" stroke-dashoffset="0" font-family="none" font-weight="none" font-size="none" text-anchor="none" style="mix-blend-mode: normal"><path d="M4,40c-1.10457,0 -2,-0.89543 -2,-2v-28c0,-1.10457 0.89543,-2 2,-2h40c1.10457,0 2,0.89543 2,2v28c0,1.10457 -0.89543,2 -2,2z" id="base 1 5 1 1" fill="#297027" stroke-width="1"></path><path d="M32.32228,15.67772l13.67772,13.67772v8.64455c0,1.10457 -0.89543,2 -2,2h-20.64455l-7.67772,-7.67772c-2.1293,-2.1293 -3.44586,-5.07133 -3.44586,-8.32228c0,-6.50189 5.26624,-11.76813 11.76813,-11.76813c3.25095,0 6.19298,1.31656 8.32228,3.44586z" fill="url(#color-1)" stroke-width="1"></path><path d="M24,12.23187c-6.50189,0 -11.76813,5.26624 -11.76813,11.76813c0,6.50189 5.26624,11.76813 11.76813,11.76813c6.50189,0 11.76813,-5.26624 11.76813,-11.76813c0,-6.50189 -5.26624,-11.76813 -11.76813,-11.76813zM25.66519,31.16679v2.24771h-3.13621v-2.27125c-2.00647,-0.42954 -3.72461,-1.71815 -3.84818,-4.00705h2.30067c0.11768,1.23565 0.96499,2.19476 3.11856,2.19476c2.31244,0 2.82435,-1.15328 2.82435,-1.87113c0,-0.97087 -0.52368,-1.89467 -3.13621,-2.51838c-2.9185,-0.7002 -4.91908,-1.90644 -4.91908,-4.3189c0,-2.01823 1.62989,-3.33627 3.65989,-3.77757v-2.25948h3.13621v2.2889c2.18887,0.53545 3.28331,2.18887 3.3598,3.98351h-2.31832c-0.06472,-1.30626 -0.75316,-2.19476 -2.61253,-2.19476c-1.76522,0 -2.82435,0.79435 -2.82435,1.93586c0,0.99441 0.76493,1.62989 3.13621,2.24771c2.37716,0.61783 4.91908,1.62989 4.91908,4.60134c0,2.14768 -1.624,3.33038 -3.65989,3.71873z" fill="none" stroke-width="0"></path><path d="M35.76813,24c0,6.50189 -5.26624,11.76813 -11.76813,11.76813c-6.50189,0 -11.76813,-5.26624 -11.76813,-11.76813c0,-6.50189 5.26624,-11.76813 11.76813,-11.76813c6.50189,0 11.76813,5.26624 11.76813,11.76813zM29.32508,27.44806c0,-2.97145 -2.54192,-3.98351 -4.91908,-4.60134c-2.37128,-0.61783 -3.13621,-1.25331 -3.13621,-2.24771c0,-1.14151 1.05913,-1.93586 2.82435,-1.93586c1.85936,0 2.5478,0.88849 2.61253,2.19476h2.31832c-0.07649,-1.79464 -1.17093,-3.44806 -3.3598,-3.98351v-2.2889h-3.13621v2.25948c-2.03,0.4413 -3.65989,1.75934 -3.65989,3.77757c0,2.41247 2.00058,3.6187 4.91908,4.3189c2.61253,0.62371 3.13621,1.54751 3.13621,2.51838c0,0.71786 -0.51191,1.87113 -2.82435,1.87113c-2.15357,0 -3.00087,-0.9591 -3.11856,-2.19476h-2.30067c0.12357,2.2889 1.84171,3.57751 3.84818,4.00705v2.27125h3.13621v-2.24771c2.03589,-0.38835 3.65989,-1.57105 3.65989,-3.71873z" fill="#9ee09d" stroke-width="0"></path><path d="M2,24c0,-12.15026 9.84974,-22 22,-22c12.15026,0 22,9.84974 22,22c0,12.15026 -9.84974,22 -22,22c-12.15026,0 -22,-9.84974 -22,-22z" id="base 1 1 1" fill="none" stroke-width="1"></path><g fill="#000000" stroke-width="1" font-family="Roboto, sans-serif" font-weight="400" font-size="14" text-anchor="start"></g><rect x="2" y="2" width="44" height="22" fill="none" stroke-width="1"></rect><path d="M2,24v-22h44v22z" fill="none" stroke-width="1"></path><path d="M2,24v-22h44v22z" fill="none" stroke-width="1"></path><path d="M2,24v-22h44v22z" fill="none" stroke-width="1"></path><path d="M2,24v-22h44v22z" fill="none" stroke-width="1"></path></g></svg>